<svg xmlns="http://www.w3.org/2000/svg" width="132" height="23"><path d="M4.455 1.001A4.416 4.416 0 018.91 5.378v13.13a4.416 4.416 0 01-4.455 4.377A4.416 4.416 0 010 18.508V5.378a4.416 4.416 0 014.455-4.377m27.979 2.271a4.337 4.337 0 01-1.763 5.942l-11.716 6.318a4.5 4.5 0 01-6.05-1.732 4.338 4.338 0 011.763-5.943l11.717-6.316a4.5 4.5 0 016.049 1.732m-8.361 15.236a4.417 4.417 0 004.455 4.377 4.417 4.417 0 004.455-4.377 4.417 4.417 0 00-4.455-4.377 4.417 4.417 0 00-4.455 4.377" fill="#235ECF"/><path d="M46 21.35V1.215a.778.778 0 01.777-.78h4.006a.779.779 0 01.779.78v16.02h7.418V1.215a.779.779 0 01.778-.78h4.008a.778.778 0 01.777.78v16.02h2.063a.779.779 0 01.777.781v3.335a.779.779 0 01-.777.781H46.777A.779.779 0 0146 21.35m22.52 0V1.215a.778.778 0 01.777-.78h4.006a.779.779 0 01.779.78v11.462L82.781.754a.777.777 0 01.627-.319h3.649a.779.779 0 01.779.78V21.35a.78.78 0 01-.779.781h-4.008a.779.779 0 01-.777-.781V9.765L73.42 21.813a.78.78 0 01-.626.317h-3.497a.779.779 0 01-.777-.78m24.468-1.95a10.526 10.526 0 01-3.43-8.116 10.6 10.6 0 013.4-8.122A12.232 12.232 0 01101.579 0a12.6 12.6 0 015.141 1.028.776.776 0 01.453.713v3.677a.774.774 0 01-1.094.712 10.2 10.2 0 00-4.436-.983 6.339 6.339 0 00-4.547 1.736 5.849 5.849 0 00-1.821 4.4 5.781 5.781 0 001.854 4.431 6.768 6.768 0 004.728 1.7 9.68 9.68 0 004.6-1.043.732.732 0 011.082.644v3.69a.773.773 0 01-.441.7 12.986 12.986 0 01-5.493 1.15 12.238 12.238 0 01-8.617-3.155m16.276 1.95V1.215a.779.779 0 01.779-.78h4.333a.778.778 0 01.65.351l5.238 7.986 5.271-7.987a.779.779 0 01.649-.35h4.3a.779.779 0 01.78.78V21.35a.78.78 0 01-.779.781h-3.971a.78.78 0 01-.779-.781V8.897l-3.631 5.478a.779.779 0 01-.648.348h-2.232a.779.779 0 01-.642-.339l-3.757-5.487V21.35a.78.78 0 01-.779.781h-4a.78.78 0 01-.782-.781"/></svg>