<svg xmlns="http://www.w3.org/2000/svg" width="132" height="23" viewBox="0 0 132 23"><g transform="translate(0 1)">
    <path d="M4.455,0h0A4.416,4.416,0,0,1,8.91,4.377V17.507a4.416,4.416,0,0,1-4.455,4.377A4.416,4.416,0,0,1,0,17.507V4.377A4.416,4.416,0,0,1,4.455,0" transform="translate(0 0.001)" fill="#235ECF"/>
    <path d="M20.079,2.272h0a4.337,4.337,0,0,1-1.763,5.942L6.6,14.532A4.5,4.5,0,0,1,.55,12.8,4.338,4.338,0,0,1,2.313,6.857L14.03.541a4.5,4.5,0,0,1,6.049,1.732" transform="translate(12.355 0)" fill="#235ECF"/>
    <path d="M0,4.377A4.417,4.417,0,0,0,4.455,8.754,4.417,4.417,0,0,0,8.91,4.377,4.417,4.417,0,0,0,4.455,0,4.417,4.417,0,0,0,0,4.377" transform="translate(24.073 13.132)" fill="#235ECF"/></g><g transform="translate(46)">
    <path d="M0,20.915V.78A.778.778,0,0,1,.777,0H4.783a.779.779,0,0,1,.779.78V16.8h7.418V.78A.779.779,0,0,1,13.758,0h4.008a.778.778,0,0,1,.777.78V16.8h2.063a.779.779,0,0,1,.777.781v3.335a.779.779,0,0,1-.777.781H.777A.779.779,0,0,1,0,20.915" transform="translate(0 0.435)" fill="#000000"/>
    <path d="M0,20.915V.78A.778.778,0,0,1,.777,0H4.783a.779.779,0,0,1,.779.78V12.242L14.261.319A.777.777,0,0,1,14.888,0h3.649a.779.779,0,0,1,.779.78V20.915a.78.78,0,0,1-.779.781H14.529a.779.779,0,0,1-.777-.781V9.33L4.9,21.378a.78.78,0,0,1-.626.317H.777A.779.779,0,0,1,0,20.915" transform="translate(22.52 0.435)" fill="#000000"/>
    <path d="M3.43,19.4A10.526,10.526,0,0,1,0,11.284,10.6,10.6,0,0,1,3.4,3.162,12.232,12.232,0,0,1,12.021,0a12.6,12.6,0,0,1,5.141,1.028.776.776,0,0,1,.453.713V5.418a.774.774,0,0,1-1.094.712,10.2,10.2,0,0,0-4.436-.983A6.339,6.339,0,0,0,7.538,6.883a5.849,5.849,0,0,0-1.821,4.4,5.781,5.781,0,0,0,1.854,4.431,6.768,6.768,0,0,0,4.728,1.7,9.68,9.68,0,0,0,4.6-1.043.732.732,0,0,1,1.082.644v3.69a.773.773,0,0,1-.441.7,12.986,12.986,0,0,1-5.493,1.15A12.238,12.238,0,0,1,3.43,19.4" transform="translate(43.558 0)" fill="#000000"/>
    <path d="M0,20.915V.78A.779.779,0,0,1,.779,0H5.112a.778.778,0,0,1,.65.351L11,8.337,16.271.35A.779.779,0,0,1,16.92,0h4.3A.779.779,0,0,1,22,.78V20.915a.78.78,0,0,1-.779.781H17.25a.78.78,0,0,1-.779-.781V8.462L12.84,13.94a.779.779,0,0,1-.648.348H9.96a.779.779,0,0,1-.642-.339L5.561,8.462V20.915a.78.78,0,0,1-.779.781h-4A.78.78,0,0,1,0,20.915" transform="translate(63.264 0.435)" fill="#000000"/></g>
</svg>